<svg width="47" height="34" viewBox="0 0 47 34" fill="none" xmlns="http://www.w3.org/2000/svg">
<path d="M4.02087 33.6663C3.10421 33.6663 2.30212 33.3538 1.61462 32.7288C0.927124 32.1038 0.583374 31.3747 0.583374 30.5413V3.45801C0.583374 2.62467 0.927124 1.89551 1.61462 1.27051C2.30212 0.645508 3.10421 0.333008 4.02087 0.333008H42.9792C43.8959 0.333008 44.698 0.645508 45.3855 1.27051C46.073 1.89551 46.4167 2.62467 46.4167 3.45801V30.5413C46.4167 31.3747 46.073 32.1038 45.3855 32.7288C44.698 33.3538 43.8959 33.6663 42.9792 33.6663H4.02087ZM42.9792 6.32259L24.4167 17.3643C24.2639 17.4337 24.1207 17.4945 23.987 17.5465C23.8533 17.5986 23.691 17.6247 23.5 17.6247C23.3091 17.6247 23.1467 17.5986 23.0131 17.5465C22.8794 17.4945 22.7362 17.4337 22.5834 17.3643L4.02087 6.32259V30.5413H42.9792V6.32259ZM23.5 14.8122L42.75 3.45801H4.30733L23.5 14.8122ZM4.02087 6.68717V4.63941V4.67754V3.45801V4.65592V4.60843V6.68717Z" fill="#3A3A3A"/>
</svg>
