<svg width="43" height="35" viewBox="0 0 43 35" fill="none" xmlns="http://www.w3.org/2000/svg">
<g clip-path="url(#clip0_44_474)">
<path d="M32.1426 26.1622C29.0799 28.0624 25.3506 29.1151 21.5001 29.1663C8.95841 29.1663 1.79175 17.4997 1.79175 17.4997C4.02038 14.1191 7.11145 11.1656 10.8576 8.83718M17.7376 6.18301C18.9708 5.94804 20.2335 5.83059 21.5001 5.83301C34.0417 5.83301 41.2084 17.4997 41.2084 17.4997C40.1208 19.1558 38.8238 20.7149 37.3384 22.1518M25.2984 20.5913C24.8063 21.0212 24.2129 21.3659 23.5536 21.6051C22.8943 21.8442 22.1825 21.9728 21.4608 21.9831C20.7391 21.9935 20.0222 21.8854 19.353 21.6654C18.6837 21.4454 18.0757 21.1178 17.5653 20.7024C17.0549 20.287 16.6525 19.7921 16.3822 19.2473C16.1119 18.7026 15.9791 18.1191 15.9918 17.5316C16.0046 16.9442 16.1625 16.3649 16.4563 15.8282C16.7501 15.2915 17.1737 14.8085 17.7017 14.408M1.79175 1.45801L41.2084 33.5413" stroke="#3A3A3A" stroke-width="4" stroke-linecap="round" stroke-linejoin="round"/>
</g>
<defs>
<clipPath id="clip0_44_474">
<rect width="43" height="35" fill="white"/>
</clipPath>
</defs>
</svg>
