<svg width="297" height="268" viewBox="0 0 297 268" fill="none" xmlns="http://www.w3.org/2000/svg">
<ellipse cx="148.484" cy="134" rx="148.484" ry="134" fill="#FAFAFA" fill-opacity="0.1"/>
<g clip-path="url(#clip0_247_1398)">
<path d="M127.109 73.625C122.903 73.625 118.869 75.2152 115.895 78.0459C112.921 80.8765 111.25 84.7156 111.25 88.7187V179.281C111.25 187.613 118.355 194.375 127.109 194.375H130.435L133.19 185.75H127.109C125.307 185.75 123.578 185.068 122.303 183.855C121.029 182.642 120.312 180.997 120.312 179.281V88.7187C120.312 87.0031 121.029 85.3578 122.303 84.1447C123.578 82.9315 125.307 82.25 127.109 82.25H167.891C169.693 82.25 171.422 82.9315 172.697 84.1447C173.971 85.3578 174.688 87.0031 174.688 88.7187V116.94C177.702 116.681 180.735 116.681 183.75 116.94V88.7187C183.75 84.7156 182.079 80.8765 179.105 78.0459C176.131 75.2152 172.097 73.625 167.891 73.625H127.109ZM179.219 203C188.166 202.999 196.864 200.198 203.973 195.029C211.083 189.859 216.209 182.608 218.561 174.393C220.914 166.178 220.362 157.454 216.992 149.566C213.622 141.679 207.619 135.065 199.91 130.744C192.201 126.423 183.212 124.634 174.33 125.654C165.447 126.675 157.164 130.446 150.756 136.388C144.348 142.331 140.17 150.114 138.868 158.538C137.566 166.962 139.211 175.56 143.549 183.007L138.61 198.437C138.418 199.048 138.404 199.697 138.569 200.315C138.733 200.933 139.07 201.497 139.543 201.948C140.017 202.398 140.61 202.719 141.259 202.875C141.908 203.032 142.59 203.018 143.232 202.836L159.453 198.144C165.5 201.338 172.303 203.01 179.219 203ZM156.562 155.562C156.562 154.419 157.04 153.322 157.89 152.513C158.739 151.704 159.892 151.25 161.094 151.25H197.344C198.546 151.25 199.698 151.704 200.548 152.513C201.398 153.322 201.875 154.419 201.875 155.562C201.875 156.706 201.398 157.803 200.548 158.612C199.698 159.421 198.546 159.875 197.344 159.875H161.094C159.892 159.875 158.739 159.421 157.89 158.612C157.04 157.803 156.562 156.706 156.562 155.562ZM161.094 177.125C159.892 177.125 158.739 176.671 157.89 175.862C157.04 175.053 156.562 173.956 156.562 172.812C156.562 171.669 157.04 170.572 157.89 169.763C158.739 168.954 159.892 168.5 161.094 168.5H179.219C180.421 168.5 181.573 168.954 182.423 169.763C183.273 170.572 183.75 171.669 183.75 172.812C183.75 173.956 183.273 175.053 182.423 175.862C181.573 176.671 180.421 177.125 179.219 177.125H161.094Z" fill="#3A3A3A"/>
</g>
<defs>
<clipPath id="clip0_247_1398">
<rect width="145" height="138" fill="white" transform="translate(75 65)"/>
</clipPath>
</defs>
</svg>
