<svg width="36" height="42" viewBox="0 0 36 42" fill="none" xmlns="http://www.w3.org/2000/svg">
<path d="M3.91669 41.167C3.02294 41.167 2.25783 40.8855 1.62137 40.3225C0.984916 39.7594 0.666687 39.0826 0.666687 38.292V17.4962C0.666687 16.7055 0.984916 16.0287 1.62137 15.4657C2.25783 14.9027 3.02294 14.6212 3.91669 14.6212H7.70835V10.0212C7.70835 7.50234 8.71235 5.35527 10.7203 3.57996C12.7283 1.80465 15.1568 0.916992 18.0058 0.916992C20.8547 0.916992 23.2813 1.80465 25.2854 3.57996C27.2896 5.35527 28.2917 7.50234 28.2917 10.0212V14.6212H32.0834C32.9771 14.6212 33.7422 14.9027 34.3787 15.4657C35.0151 16.0287 35.3334 16.7055 35.3334 17.4962V38.292C35.3334 39.0826 35.0151 39.7594 34.3787 40.3225C33.7422 40.8855 32.9771 41.167 32.0834 41.167H3.91669ZM3.91669 38.292H32.0834V17.4962H3.91669V38.292ZM18.0091 31.5837C19.1586 31.5837 20.1396 31.2318 20.9521 30.528C21.7646 29.8242 22.1709 28.9782 22.1709 27.9899C22.1709 27.0316 21.7616 26.1611 20.943 25.3785C20.1244 24.5958 19.1404 24.2045 17.9909 24.2045C16.8414 24.2045 15.8604 24.5958 15.0479 25.3785C14.2354 26.1611 13.8292 27.0396 13.8292 28.0139C13.8292 28.9882 14.2385 29.8267 15.057 30.5295C15.8756 31.2323 16.8596 31.5837 18.0091 31.5837ZM10.9584 14.6212H25.0417V10.0212C25.0417 8.29082 24.3577 6.82005 22.9897 5.60885C21.6217 4.39761 19.9606 3.79199 18.0064 3.79199C16.0522 3.79199 14.3889 4.39761 13.0167 5.60885C11.6445 6.82005 10.9584 8.29082 10.9584 10.0212V14.6212Z" fill="#3A3A3A"/>
</svg>
